<svg width="1200" height="420" viewBox="0 0 1200 420" fill="none" xmlns="http://www.w3.org/2000/svg">
  <rect width="1200" height="420" rx="28" fill="#0B1120"/>
  <rect width="1200" height="420" rx="28" fill="url(#gradient)"/>
  <circle cx="1030" cy="80" r="180" fill="#1D4ED8" opacity="0.22"/>
  <circle cx="110" cy="360" r="210" fill="#DC2626" opacity="0.18"/>
  <rect x="76" y="72" width="270" height="270" rx="24" fill="#F8FAFC"/>
  <rect x="110" y="106" width="72" height="72" fill="#020617"/>
  <rect x="123" y="119" width="46" height="46" fill="#F8FAFC"/>
  <rect x="134" y="130" width="24" height="24" fill="#020617"/>
  <rect x="240" y="106" width="72" height="72" fill="#020617"/>
  <rect x="253" y="119" width="46" height="46" fill="#F8FAFC"/>
  <rect x="264" y="130" width="24" height="24" fill="#020617"/>
  <rect x="110" y="236" width="72" height="72" fill="#020617"/>
  <rect x="123" y="249" width="46" height="46" fill="#F8FAFC"/>
  <rect x="134" y="260" width="24" height="24" fill="#020617"/>
  <rect x="205" y="205" width="24" height="24" fill="#020617"/>
  <rect x="240" y="205" width="24" height="24" fill="#020617"/>
  <rect x="275" y="205" width="24" height="24" fill="#020617"/>
  <rect x="205" y="240" width="59" height="24" fill="#020617"/>
  <rect x="275" y="240" width="24" height="59" fill="#020617"/>
  <rect x="205" y="275" width="24" height="24" fill="#020617"/>
  <rect x="240" y="310" width="72" height="24" fill="#020617"/>
  <text x="410" y="140" fill="#F8FAFC" font-family="Segoe UI, Arial, sans-serif" font-size="56" font-weight="800">Secure QR Code Generator</text>
  <text x="412" y="190" fill="#CBD5E1" font-family="Segoe UI, Arial, sans-serif" font-size="25" font-weight="500">Cross-platform QR generator for Windows, Linux and Kali</text>
  <rect x="410" y="230" width="150" height="42" rx="21" fill="#16A34A"/>
  <text x="436" y="258" fill="#FFFFFF" font-family="Segoe UI, Arial, sans-serif" font-size="18" font-weight="700">Secure</text>
  <rect x="578" y="230" width="170" height="42" rx="21" fill="#2563EB"/>
  <text x="604" y="258" fill="#FFFFFF" font-family="Segoe UI, Arial, sans-serif" font-size="18" font-weight="700">Python</text>
  <rect x="766" y="230" width="210" height="42" rx="21" fill="#DC2626"/>
  <text x="792" y="258" fill="#FFFFFF" font-family="Segoe UI, Arial, sans-serif" font-size="18" font-weight="700">Kali Ready</text>
  <text x="412" y="330" fill="#E2E8F0" font-family="Consolas, monospace" font-size="24">Text • URL • Phone • SMS • Email • WhatsApp • Wi-Fi • vCard • UPI</text>
  <defs>
    <linearGradient id="gradient" x1="0" y1="0" x2="1200" y2="420" gradientUnits="userSpaceOnUse">
      <stop stop-color="#020617"/>
      <stop offset="0.45" stop-color="#111827"/>
      <stop offset="1" stop-color="#7F1D1D"/>
    </linearGradient>
  </defs>
</svg>
