<svg width="1100" height="420" viewBox="0 0 1100 420" fill="none" xmlns="http://www.w3.org/2000/svg">
  <rect width="1100" height="420" rx="24" fill="#111827"/>
  <text x="50" y="60" fill="#F8FAFC" font-family="Segoe UI, Arial, sans-serif" font-size="34" font-weight="800">Security First Design</text>
  <path d="M160 115L275 155V245C275 315 225 358 160 378C95 358 45 315 45 245V155L160 115Z" fill="#16A34A"/>
  <path d="M110 238L145 273L215 190" stroke="#FFFFFF" stroke-width="18" stroke-linecap="round" stroke-linejoin="round"/>
  <rect x="340" y="115" width="320" height="78" rx="16" fill="#1F2937"/>
  <text x="370" y="147" fill="#F87171" font-family="Segoe UI, Arial, sans-serif" font-size="22" font-weight="700">Blocks Dangerous Schemes</text>
  <text x="370" y="174" fill="#CBD5E1" font-family="Segoe UI, Arial, sans-serif" font-size="16">javascript:, data:, file:, intent:, powershell:</text>
  <rect x="700" y="115" width="320" height="78" rx="16" fill="#1F2937"/>
  <text x="730" y="147" fill="#60A5FA" font-family="Segoe UI, Arial, sans-serif" font-size="22" font-weight="700">HTTPS Only URLs</text>
  <text x="730" y="174" fill="#CBD5E1" font-family="Segoe UI, Arial, sans-serif" font-size="16">Rejects risky and malformed URL payloads</text>
  <rect x="340" y="225" width="320" height="78" rx="16" fill="#1F2937"/>
  <text x="370" y="257" fill="#34D399" font-family="Segoe UI, Arial, sans-serif" font-size="22" font-weight="700">Input Validation</text>
  <text x="370" y="284" fill="#CBD5E1" font-family="Segoe UI, Arial, sans-serif" font-size="16">Phone, email, UPI, Wi-Fi and filename checks</text>
  <rect x="700" y="225" width="320" height="78" rx="16" fill="#1F2937"/>
  <text x="730" y="257" fill="#FBBF24" font-family="Segoe UI, Arial, sans-serif" font-size="22" font-weight="700">Payload Preview</text>
  <text x="730" y="284" fill="#CBD5E1" font-family="Segoe UI, Arial, sans-serif" font-size="16">Shows encoded QR data before generation</text>
  <text x="340" y="360" fill="#E5E7EB" font-family="Consolas, monospace" font-size="20">Safer QR generation through allowlisted formats and strict checks.</text>
</svg>
